# xmcd
#
# Track frame offsets:
#	150
#	17965
#	34442
#	51950
#	75755
#	94517
#	113446
#	132292
#	150246
#	169621
#	187826
#	204972
#
# Disc length: 3004 seconds
#
# Revision: 0
# Processed by: cddbd v1.4PL0 Copyright (c) Steve Scherf et al.
# Submitted via: EasyCDDAExtractor 4.6.9.1
#
DISCID=810bba0c
DTITLE=Pablo Herrera - Yo Voy Contigo
DYEAR=1900
DGENRE=latin
TTITLE0=Tengo Un Amor
TTITLE1=Yo voy Contiigo
TTITLE2=Ven y Vuelve
TTITLE3=Si Te Volvieras Real
TTITLE4=Me Haces Falta
TTITLE5=Tu Eres Mia
TTITLE6=Si Tu Supieras
TTITLE7=Besarte Despacio
TTITLE8=Ella Anda Por Ahi
TTITLE9=Quisiera Atrapar El Tiempo
TTITLE10=Cuestion De Fe
TTITLE11=Que Hice Mal
EXTD=
EXTT0=
EXTT1=
EXTT2=
EXTT3=
EXTT4=
EXTT5=
EXTT6=
EXTT7=
EXTT8=
EXTT9=
EXTT10=
EXTT11=
PLAYORDER=
